<svg xmlns="http://www.w3.org/2000/svg" viewBox="0 0 897.31 800.93"><defs><style>.cls-1{fill:#f2f2f2;}.cls-2{fill:#ffd98e;}.cls-3{fill:#6bd5e1;}.cls-4{fill:#e0e0e0;}.cls-5{fill:#5fc5d1;}.cls-10,.cls-11,.cls-12,.cls-13,.cls-14,.cls-6,.cls-7{fill:none;stroke-linecap:round;stroke-linejoin:round;}.cls-11,.cls-6{stroke:#ffd98e;}.cls-13,.cls-6,.cls-7{stroke-width:2.19px;}.cls-14,.cls-7{stroke:#6bd5e1;}.cls-8{fill:#c9c9c9;}.cls-9{fill:#fd8369;}.cls-10{stroke:#fd8369;stroke-width:2px;}.cls-11,.cls-14{stroke-width:3px;}.cls-12,.cls-13{stroke:#000;}.cls-12{stroke-width:2.09px;}</style></defs><title>entryway-colour</title><g id="Layer_2" data-name="Layer 2"><g id="vector"><path class="cls-1" d="M770.31,744.59c-48.61,52.21-177.82,28.65-292.4,5.83S263.59,705.65,203.65,637.89c-59.75-67.6-79.73-181.19-50.08-283.68C183,251.57,262.27,160,371,108.05,479.73,55.94,617.94,43.46,686.89,105c69.1,61.31,68.76,196.62,84.57,328.1C787.1,564.56,819.08,692.36,770.31,744.59Z"/><rect class="cls-2" x="440.85" y="391.41" width="114.85" height="11.45"/><rect class="cls-3" x="430.49" y="377" width="99.85" height="14.42"/><rect class="cls-4" x="427.79" y="402.87" width="98.79" height="30.34"/><path class="cls-5" d="M719.52,279.46c-8.55,11.31-11.16,23.3-5.53,29.63l-.09.22,84.89-75.53"/><path class="cls-2" d="M110.1,396.86C105.35,385.37,93.91,336.4,55,336.4c-18.35,0-47.5,19.08-47.5,50.38,0,17.86,12.39,40.25,24.06,63.6a29,29,0,1,1,19.27,50.93c18.89,107.08,64.66,120.1,75.79,120.1s24.83-129.55,24.83-144.66S129.89,444.72,110.1,396.86Z"/><path class="cls-3" d="M227.6,495.93a25,25,0,1,1,9.17-48.28c-.22-21.06-10.57-60.87-56.47-60.87-24.86,0-41,35.63-45,66.22-3.31,25.28-27.35,66.93-27.35,100.76,0,45.34,30.23,79.52,44.26,79.52,29.5,0,64-76.4,78.05-137.49A25.68,25.68,0,0,1,227.6,495.93Z"/><path class="cls-6" d="M148,623.46C146,611.18,140.44,533.61,174.2,475"/><path class="cls-7" d="M57.3,379c35.37,50.87,66,137.5,70.75,228.39"/><polygon class="cls-8" points="139.29 784.37 177.29 784.37 221.29 614.37 139.29 614.37 57.3 614.37 101.3 784.37 139.29 784.37"/><rect class="cls-9" x="177.89" y="433.21" width="525.91" height="13.12"/><line class="cls-10" x1="221.91" y1="784.37" x2="221.91" y2="445.91"/><line class="cls-10" x1="310.38" y1="784.37" x2="310.38" y2="445.91"/><line class="cls-10" x1="221.91" y1="482.23" x2="310.38" y2="482.23"/><line class="cls-10" x1="221.91" y1="761.47" x2="310.38" y2="761.47"/><line class="cls-10" x1="571.32" y1="784.37" x2="571.32" y2="445.91"/><line class="cls-10" x1="659.79" y1="784.37" x2="659.79" y2="445.91"/><line class="cls-10" x1="571.32" y1="482.23" x2="659.79" y2="482.23"/><line class="cls-10" x1="571.32" y1="761.47" x2="659.79" y2="761.47"/><rect class="cls-2" x="244.91" y="416.37" width="96.77" height="16.84"/><path class="cls-11" d="M405.38,213.67v-9.11a54.78,54.78,0,0,0-54.62-54.62h-2.84a54.78,54.78,0,0,0-54.62,54.62V416.37"/><path class="cls-3" d="M434.27,265.08c0-.49,0-1,0-1.48V243a29,29,0,0,0-28.93-28.92h0A29,29,0,0,0,376.46,243V263.6c0,.5,0,1,0,1.48Z"/><path class="cls-2" d="M414.2,265.2a8.82,8.82,0,0,1-17.63,0"/><path class="cls-12" d="M420.55,402.87h106A15.22,15.22,0,0,1,541.76,418h0a15.22,15.22,0,0,1-15.17,15.17h-106"/><rect class="cls-3" x="593.5" y="384.21" width="34.57" height="49.01"/><path class="cls-13" d="M628.07,395.18a13.17,13.17,0,1,1,0,26.33"/><rect class="cls-11" x="762.56" y="779.71" width="133.25" height="19.72"/><line class="cls-11" x1="829.19" y1="779.71" x2="829.19" y2="199.13"/><path class="cls-11" d="M829.19,345.25a61,61,0,0,1-60.8-60.8V252.78"/><path class="cls-11" d="M889.88,199.13v26.1a61,61,0,0,1-60.8,60.8"/><path class="cls-5" d="M760.46,241.17s-7.52-5.29-12.54-5.29-28.22,19.19-30.1,28.35,6.58,31.17,9,33.59L747.94,279l12.52-37.84"/><circle class="cls-2" cx="889.88" cy="192.69" r="6.27"/><circle class="cls-2" cx="586.87" cy="159.22" r="62.21"/><line class="cls-14" x1="586.87" y1="159.22" x2="586.87" y2="114.75"/><line class="cls-14" x1="586.87" y1="159.22" x2="615.6" y2="159.22"/><rect class="cls-9" y="115.58" width="222.37" height="9.27"/><rect class="cls-4" x="98.68" width="22.24" height="115.58"/><rect class="cls-2" x="79.34" y="14.41" width="19.34" height="101.18"/><rect class="cls-4" x="158.41" y="16.41" width="19.34" height="101.18" transform="matrix(0.84, -0.55, 0.55, 0.84, -9.35, 102.45)"/><rect class="cls-3" x="120.91" y="31.63" width="11.99" height="83.95"/><rect class="cls-9" x="28.33" y="124.85" width="11.59" height="11.59"/><rect class="cls-9" x="182.45" y="124.85" width="11.59" height="11.59"/><path class="cls-3" d="M744.34,281.78c-7.22-8.12-.89-25.55,14.15-38.93s33.07-17.63,40.3-9.52"/></g></g></svg>