<svg width="253" height="67" viewBox="0 0 253 67" fill="none" xmlns="http://www.w3.org/2000/svg">
<path d="M73.47 27.371H79.266C80.862 27.371 82.122 27.497 83.046 27.749C83.97 27.987 84.649 28.407 85.083 29.009C85.517 29.611 85.734 30.444 85.734 31.508V37.052C85.734 38.088 85.531 38.893 85.125 39.467C84.719 40.027 84.054 40.426 83.13 40.664C82.206 40.888 80.925 41 79.287 41H73.47V27.371ZM79.14 38.669C80.036 38.669 80.708 38.634 81.156 38.564C81.618 38.48 81.947 38.326 82.143 38.102C82.353 37.878 82.458 37.528 82.458 37.052V31.445C82.458 30.801 82.199 30.353 81.681 30.101C81.177 29.835 80.365 29.702 79.245 29.702H76.746V38.669H79.14ZM91.1302 41.21C90.1782 41.21 89.4642 41.126 88.9882 40.958C88.5262 40.776 88.1972 40.461 88.0012 40.013C87.8192 39.551 87.7282 38.865 87.7282 37.955C87.7282 37.143 87.8262 36.506 88.0222 36.044C88.2322 35.582 88.5612 35.253 89.0092 35.057C89.4712 34.847 90.1012 34.742 90.8992 34.742H94.3432V34.049C94.3432 33.615 94.2802 33.293 94.1542 33.083C94.0422 32.873 93.8252 32.726 93.5032 32.642C93.1952 32.558 92.7262 32.516 92.0962 32.516C91.2282 32.516 90.0382 32.6 88.5262 32.768V30.836C89.6322 30.696 90.9272 30.626 92.4112 30.626C93.7132 30.626 94.7142 30.724 95.4142 30.92C96.1282 31.116 96.6392 31.452 96.9472 31.928C97.2552 32.404 97.4092 33.097 97.4092 34.007V41H94.4062V40.076C94.1682 40.482 93.8462 40.769 93.4402 40.937C93.0342 41.119 92.2642 41.21 91.1302 41.21ZM92.3272 39.299C92.9432 39.299 93.3842 39.278 93.6502 39.236C93.8462 39.208 93.9792 39.166 94.0492 39.11C94.1332 39.054 94.2032 38.963 94.2592 38.837C94.3152 38.739 94.3432 38.592 94.3432 38.396V36.422H92.2432C91.7672 36.422 91.4312 36.457 91.2352 36.527C91.0392 36.583 90.9062 36.709 90.8362 36.905C90.7662 37.087 90.7312 37.416 90.7312 37.892C90.7312 38.354 90.7662 38.676 90.8362 38.858C90.9062 39.04 91.0392 39.159 91.2352 39.215C91.4452 39.271 91.8092 39.299 92.3272 39.299ZM103.908 41.21C102.816 41.21 101.479 41.105 99.8967 40.895V38.858C101.843 39.152 103.194 39.299 103.95 39.299C104.594 39.299 105.07 39.236 105.378 39.11C105.686 38.984 105.84 38.753 105.84 38.417V37.787C105.84 37.437 105.742 37.192 105.546 37.052C105.35 36.898 104.965 36.821 104.391 36.821H103.068C101.99 36.821 101.157 36.611 100.569 36.191C99.9807 35.757 99.6867 35.127 99.6867 34.301V33.062C99.6867 32.18 100.107 31.557 100.947 31.193C101.787 30.815 103.054 30.626 104.748 30.626C105.42 30.626 106.624 30.689 108.36 30.815V32.768C106.176 32.6 104.944 32.516 104.664 32.516C103.838 32.516 103.299 32.572 103.047 32.684C102.823 32.81 102.711 33.041 102.711 33.377V33.923C102.711 34.105 102.802 34.266 102.984 34.406C103.166 34.532 103.432 34.595 103.782 34.595H105.126C107.618 34.595 108.864 35.407 108.864 37.031V38.312C108.864 38.802 108.773 39.229 108.591 39.593C108.409 39.957 108.171 40.244 107.877 40.454C107.597 40.65 107.233 40.804 106.785 40.916C106.351 41.028 105.896 41.105 105.42 41.147C104.986 41.189 104.482 41.21 103.908 41.21ZM111.14 26.3H114.206V32.075C114.402 31.109 115.473 30.626 117.419 30.626C118.721 30.626 119.631 30.864 120.149 31.34C120.681 31.802 120.947 32.537 120.947 33.545V41H117.881V33.902C117.881 33.51 117.839 33.223 117.755 33.041C117.685 32.845 117.538 32.712 117.314 32.642C117.09 32.558 116.733 32.516 116.243 32.516C115.641 32.516 115.2 32.551 114.92 32.621C114.64 32.691 114.451 32.824 114.353 33.02C114.255 33.202 114.206 33.496 114.206 33.902V41H111.14V26.3ZM128.774 41.21C127.486 41.21 126.464 41.077 125.708 40.811C124.966 40.545 124.434 40.139 124.112 39.593C123.79 39.033 123.629 38.298 123.629 37.388V26.3H126.695V31.844C126.877 31.382 127.213 31.067 127.703 30.899C128.193 30.717 128.956 30.626 129.992 30.626C130.874 30.626 131.581 30.696 132.113 30.836C132.659 30.976 133.072 31.2 133.352 31.508C133.618 31.816 133.8 32.159 133.898 32.537C133.996 32.901 134.045 33.405 134.045 34.049V37.388C134.045 38.76 133.632 39.74 132.806 40.328C131.98 40.916 130.636 41.21 128.774 41.21ZM128.816 39.299C129.418 39.299 129.873 39.257 130.181 39.173C130.489 39.089 130.699 38.942 130.811 38.732C130.923 38.522 130.979 38.207 130.979 37.787V34.028C130.979 33.566 130.93 33.237 130.832 33.041C130.734 32.831 130.538 32.691 130.244 32.621C129.95 32.551 129.467 32.516 128.795 32.516C128.221 32.516 127.78 32.565 127.472 32.663C127.178 32.761 126.975 32.915 126.863 33.125C126.751 33.335 126.695 33.636 126.695 34.028V37.787C126.695 38.207 126.744 38.522 126.842 38.732C126.954 38.942 127.157 39.089 127.451 39.173C127.759 39.257 128.214 39.299 128.816 39.299ZM141.319 41.21C140.689 41.21 140.171 41.189 139.765 41.147C139.359 41.105 138.925 41.021 138.463 40.895C137.959 40.755 137.553 40.559 137.245 40.307C136.937 40.041 136.678 39.67 136.468 39.194C136.258 38.732 136.153 38.172 136.153 37.514V34.511C136.153 33.839 136.258 33.251 136.468 32.747C136.678 32.243 136.951 31.851 137.287 31.571C137.581 31.333 137.966 31.137 138.442 30.983C138.932 30.815 139.408 30.71 139.87 30.668C140.402 30.64 140.885 30.626 141.319 30.626C141.963 30.626 142.474 30.647 142.852 30.689C143.244 30.717 143.671 30.801 144.133 30.941C144.637 31.095 145.043 31.305 145.351 31.571C145.673 31.837 145.946 32.215 146.17 32.705C146.38 33.209 146.485 33.811 146.485 34.511V37.514C146.485 38.144 146.38 38.697 146.17 39.173C145.974 39.649 145.715 40.02 145.393 40.286C145.113 40.524 144.728 40.72 144.238 40.874C143.762 41.014 143.293 41.105 142.831 41.147C142.411 41.189 141.907 41.21 141.319 41.21ZM141.319 39.299C141.893 39.299 142.327 39.257 142.621 39.173C142.915 39.075 143.118 38.928 143.23 38.732C143.356 38.536 143.419 38.249 143.419 37.871V34.028C143.419 33.468 143.272 33.076 142.978 32.852C142.684 32.628 142.131 32.516 141.319 32.516C140.507 32.516 139.954 32.628 139.66 32.852C139.366 33.076 139.219 33.468 139.219 34.028V37.871C139.219 38.249 139.275 38.536 139.387 38.732C139.513 38.928 139.723 39.075 140.017 39.173C140.311 39.257 140.745 39.299 141.319 39.299ZM151.751 41.21C150.799 41.21 150.085 41.126 149.609 40.958C149.147 40.776 148.818 40.461 148.622 40.013C148.44 39.551 148.349 38.865 148.349 37.955C148.349 37.143 148.447 36.506 148.643 36.044C148.853 35.582 149.182 35.253 149.63 35.057C150.092 34.847 150.722 34.742 151.52 34.742H154.964V34.049C154.964 33.615 154.901 33.293 154.775 33.083C154.663 32.873 154.446 32.726 154.124 32.642C153.816 32.558 153.347 32.516 152.717 32.516C151.849 32.516 150.659 32.6 149.147 32.768V30.836C150.253 30.696 151.548 30.626 153.032 30.626C154.334 30.626 155.335 30.724 156.035 30.92C156.749 31.116 157.26 31.452 157.568 31.928C157.876 32.404 158.03 33.097 158.03 34.007V41H155.027V40.076C154.789 40.482 154.467 40.769 154.061 40.937C153.655 41.119 152.885 41.21 151.751 41.21ZM152.948 39.299C153.564 39.299 154.005 39.278 154.271 39.236C154.467 39.208 154.6 39.166 154.67 39.11C154.754 39.054 154.824 38.963 154.88 38.837C154.936 38.739 154.964 38.592 154.964 38.396V36.422H152.864C152.388 36.422 152.052 36.457 151.856 36.527C151.66 36.583 151.527 36.709 151.457 36.905C151.387 37.087 151.352 37.416 151.352 37.892C151.352 38.354 151.387 38.676 151.457 38.858C151.527 39.04 151.66 39.159 151.856 39.215C152.066 39.271 152.43 39.299 152.948 39.299ZM160.728 30.836H163.647V32.621C163.647 32.299 163.78 31.984 164.046 31.676C164.312 31.368 164.648 31.116 165.054 30.92C165.474 30.724 165.887 30.626 166.293 30.626H167.385V33.167H166.335C165.467 33.167 164.823 33.3 164.403 33.566C163.997 33.832 163.794 34.273 163.794 34.889V41H160.728V30.836ZM172.98 41.21C171.776 41.21 170.887 41.126 170.313 40.958C169.739 40.776 169.34 40.44 169.116 39.95C168.892 39.46 168.78 38.697 168.78 37.661V33.692C168.78 32.572 169.095 31.781 169.725 31.319C170.369 30.857 171.405 30.626 172.833 30.626C173.505 30.626 174.03 30.668 174.408 30.752C174.8 30.822 175.115 30.955 175.353 31.151C175.591 31.333 175.836 31.606 176.088 31.97V26.3H179.154V41H176.193V39.845C175.941 40.251 175.71 40.538 175.5 40.706C175.304 40.86 175.024 40.979 174.66 41.063C174.282 41.161 173.722 41.21 172.98 41.21ZM173.757 39.299C174.443 39.299 174.947 39.264 175.269 39.194C175.591 39.124 175.808 38.998 175.92 38.816C176.032 38.62 176.088 38.333 176.088 37.955V33.86C176.088 33.51 176.025 33.244 175.899 33.062C175.787 32.866 175.577 32.726 175.269 32.642C174.975 32.558 174.527 32.516 173.925 32.516C173.281 32.516 172.819 32.558 172.539 32.642C172.259 32.712 172.07 32.845 171.972 33.041C171.888 33.223 171.846 33.531 171.846 33.965V37.85C171.846 38.242 171.888 38.543 171.972 38.753C172.07 38.949 172.252 39.089 172.518 39.173C172.784 39.257 173.197 39.299 173.757 39.299ZM189.967 29.702H185.767V27.371H197.422V29.702H193.243V41H189.967V29.702ZM202.057 41.21C201.105 41.21 200.391 41.126 199.915 40.958C199.453 40.776 199.124 40.461 198.928 40.013C198.746 39.551 198.655 38.865 198.655 37.955C198.655 37.143 198.753 36.506 198.949 36.044C199.159 35.582 199.488 35.253 199.936 35.057C200.398 34.847 201.028 34.742 201.826 34.742H205.27V34.049C205.27 33.615 205.207 33.293 205.081 33.083C204.969 32.873 204.752 32.726 204.43 32.642C204.122 32.558 203.653 32.516 203.023 32.516C202.155 32.516 200.965 32.6 199.453 32.768V30.836C200.559 30.696 201.854 30.626 203.338 30.626C204.64 30.626 205.641 30.724 206.341 30.92C207.055 31.116 207.566 31.452 207.874 31.928C208.182 32.404 208.336 33.097 208.336 34.007V41H205.333V40.076C205.095 40.482 204.773 40.769 204.367 40.937C203.961 41.119 203.191 41.21 202.057 41.21ZM203.254 39.299C203.87 39.299 204.311 39.278 204.577 39.236C204.773 39.208 204.906 39.166 204.976 39.11C205.06 39.054 205.13 38.963 205.186 38.837C205.242 38.739 205.27 38.592 205.27 38.396V36.422H203.17C202.694 36.422 202.358 36.457 202.162 36.527C201.966 36.583 201.833 36.709 201.763 36.905C201.693 37.087 201.658 37.416 201.658 37.892C201.658 38.354 201.693 38.676 201.763 38.858C201.833 39.04 201.966 39.159 202.162 39.215C202.372 39.271 202.736 39.299 203.254 39.299ZM214.834 41.21C213.742 41.21 212.405 41.105 210.823 40.895V38.858C212.769 39.152 214.12 39.299 214.876 39.299C215.52 39.299 215.996 39.236 216.304 39.11C216.612 38.984 216.766 38.753 216.766 38.417V37.787C216.766 37.437 216.668 37.192 216.472 37.052C216.276 36.898 215.891 36.821 215.317 36.821H213.994C212.916 36.821 212.083 36.611 211.495 36.191C210.907 35.757 210.613 35.127 210.613 34.301V33.062C210.613 32.18 211.033 31.557 211.873 31.193C212.713 30.815 213.98 30.626 215.674 30.626C216.346 30.626 217.55 30.689 219.286 30.815V32.768C217.102 32.6 215.87 32.516 215.59 32.516C214.764 32.516 214.225 32.572 213.973 32.684C213.749 32.81 213.637 33.041 213.637 33.377V33.923C213.637 34.105 213.728 34.266 213.91 34.406C214.092 34.532 214.358 34.595 214.708 34.595H216.052C218.544 34.595 219.79 35.407 219.79 37.031V38.312C219.79 38.802 219.699 39.229 219.517 39.593C219.335 39.957 219.097 40.244 218.803 40.454C218.523 40.65 218.159 40.804 217.711 40.916C217.277 41.028 216.822 41.105 216.346 41.147C215.912 41.189 215.408 41.21 214.834 41.21ZM222.067 26.3H225.133V41H222.067V26.3ZM225.259 35.288L228.598 30.836H232.105L228.577 35.267L232.399 41H228.934L225.259 35.288ZM237.208 41.21C236.116 41.21 234.779 41.105 233.197 40.895V38.858C235.143 39.152 236.494 39.299 237.25 39.299C237.894 39.299 238.37 39.236 238.678 39.11C238.986 38.984 239.14 38.753 239.14 38.417V37.787C239.14 37.437 239.042 37.192 238.846 37.052C238.65 36.898 238.265 36.821 237.691 36.821H236.368C235.29 36.821 234.457 36.611 233.869 36.191C233.281 35.757 232.987 35.127 232.987 34.301V33.062C232.987 32.18 233.407 31.557 234.247 31.193C235.087 30.815 236.354 30.626 238.048 30.626C238.72 30.626 239.924 30.689 241.66 30.815V32.768C239.476 32.6 238.244 32.516 237.964 32.516C237.138 32.516 236.599 32.572 236.347 32.684C236.123 32.81 236.011 33.041 236.011 33.377V33.923C236.011 34.105 236.102 34.266 236.284 34.406C236.466 34.532 236.732 34.595 237.082 34.595H238.426C240.918 34.595 242.164 35.407 242.164 37.031V38.312C242.164 38.802 242.073 39.229 241.891 39.593C241.709 39.957 241.471 40.244 241.177 40.454C240.897 40.65 240.533 40.804 240.085 40.916C239.651 41.028 239.196 41.105 238.72 41.147C238.286 41.189 237.782 41.21 237.208 41.21Z" fill="#3A3A3A"/>
<rect x="1.5" y="1.5" width="250" height="64" rx="5.5" stroke="#CDCDCD" stroke-width="3"/>
<circle cx="38" cy="34" r="27" fill="#DBDBDB"/>
<path d="M65 34C65 37.5457 64.3016 41.0567 62.9447 44.3325C61.5879 47.6082 59.5991 50.5847 57.0919 53.0919C54.5847 55.5991 51.6082 57.5879 48.3325 58.9447C45.0567 60.3016 41.5457 61 38 61L38 34H65Z" fill="#747474"/>
<path d="M38 61C30.8392 61 23.9716 58.1554 18.9081 53.0919C13.8446 48.0284 11 41.1608 11 34C11 26.8392 13.8446 19.9716 18.9081 14.9081C23.9716 9.84463 30.8392 7 38 7L38 34L38 61Z" fill="#858585"/>
<rect x="24" y="20" width="28" height="29" rx="6" fill="#C4C4C4"/>
</svg>
