<svg width="313" height="333" viewBox="0 0 313 333" fill="none" xmlns="http://www.w3.org/2000/svg">
<path d="M142.877 83.5251L56.0762 100.624C46.9428 102.423 40.9097 111.759 42.6008 121.476L69.7936 277.722C71.4847 287.439 80.2597 293.858 89.3931 292.059L176.194 274.96C185.328 273.16 191.361 263.825 189.67 254.108L162.477 97.8615C160.786 88.1446 152.011 81.7259 142.877 83.5251Z" fill="#5A80B8"/>
<path d="M125.159 87.0138L39.5401 103.88L72.857 295.314L158.476 278.448L125.159 87.0138Z" fill="#5A80B8"/>
<path d="M140.173 75.2431L42.793 102.384C33.8075 104.888 28.4317 114.668 30.7856 124.228L68.636 277.942C70.99 287.502 80.1823 293.221 89.1677 290.717L186.548 263.576C195.533 261.072 200.909 251.292 198.555 241.733L160.705 88.0177C158.351 78.4581 149.158 72.7387 140.173 75.2431Z" fill="#749EDE"/>
<path d="M121.975 80.315L26.5203 106.919L72.895 295.252L168.35 268.648L121.975 80.315Z" fill="#749EDE"/>
<path d="M134.921 77.5309L122.523 80.9303L168.272 269.778L180.67 266.379L134.921 77.5309Z" fill="#B1B1B1"/>
<path d="M150.795 97.6699L45.8282 126.925L58.0567 176.587L163.024 147.332L150.795 97.6699Z" fill="#F3F3F3"/>
<path d="M150.795 97.6699L45.8282 126.925L58.0567 176.587L163.024 147.332L150.795 97.6699Z" fill="white"/>
<path d="M113.396 245.502L73.1612 256.716L79.6159 282.93L119.851 271.716L113.396 245.502Z" fill="white"/>
<path d="M235.011 142.271C235.976 142.738 238.258 144.602 239.135 145.676C240.144 145.163 257.424 133.686 259.926 133.824C262.427 133.963 261.11 139.236 261.11 139.749C261.11 140.262 240.267 157.528 236.871 157.528C233.474 157.528 228.959 149.689 228.959 149.223C228.959 148.757 235.011 142.271 235.011 142.271Z" fill="#D1987D"/>
<path d="M270.354 96.9252L267.787 96.5367L262.57 95.7514L261.832 101.301L239.922 266.025L238.561 276.26C238.366 277.73 238.727 279.222 239.566 280.408C240.405 281.595 241.652 282.378 243.034 282.587L245.603 282.975C246.985 283.182 248.388 282.797 249.504 281.904C250.619 281.011 251.355 279.684 251.55 278.213L252.912 267.982L274.822 103.258L275.56 97.7078L270.354 96.9252Z" fill="#E46D6D"/>
<path d="M271.496 78.4937L262.576 95.7514L275.565 97.7078L271.496 78.4937Z" fill="#E8A07D"/>
<path d="M272.837 84.8262L271.496 78.4937L268.557 84.1796L272.837 84.8262Z" fill="#4E4E4E"/>
<path d="M253.113 266.329L240.123 264.372L239.463 269.334L252.453 271.291L253.113 266.329Z" fill="#BBBBBB"/>
<path d="M225.436 276.151H219.113V280.206H225.436V276.151Z" fill="#D1987D"/>
<path d="M237.561 261.525L234.129 266.494L237.2 268.895L240.632 263.926L237.561 261.525Z" fill="#D1987D"/>
<path d="M195.156 190.087C195.156 190.087 191.021 229.548 192.466 233.966C193.911 238.384 234.721 267.199 234.721 267.199L238.514 261.821L207.639 228.008C209.17 226.759 215.182 211.105 215.336 209.759C215.49 208.414 210.884 187.559 210.884 187.559L195.156 190.087Z" fill="#538A5C"/>
<path d="M220.329 134.077C223.62 128.671 236.5 139.877 236.844 142.224C237.189 144.572 231.92 153.815 227.781 153.582C223.641 153.349 218.411 137.224 220.329 134.077Z" fill="#DE6C6C"/>
<path d="M211.429 125.649C236.531 125.649 229.776 180.45 229.392 184.859C227.473 188.37 196.992 192.224 195.155 190.088C194.389 183.96 187.709 125.649 211.429 125.649Z" fill="#DC5858"/>
<path d="M209.105 128.344C209.105 129.892 217.165 130.222 217.165 128.344V117.813H209.105V128.344Z" fill="#D1987D"/>
<path d="M218.206 122.372C221.914 120.803 223.313 115.232 221.33 109.93C219.347 104.628 214.734 101.602 211.025 103.171C207.317 104.741 205.918 110.312 207.901 115.614C209.884 120.916 214.497 123.942 218.206 122.372Z" fill="#D1987D"/>
<path d="M209.261 118.983C209.987 118.43 209.972 117.084 209.227 115.978C208.483 114.872 207.29 114.423 206.564 114.976C205.838 115.53 205.853 116.875 206.598 117.982C207.343 119.088 208.535 119.536 209.261 118.983Z" fill="#D1987D"/>
<path d="M201.136 112.041C201.136 110.609 202.391 109.035 202.628 107.237C202.751 106.327 202.485 102.536 203.484 101.254C205.571 98.5985 206.786 99.1424 208.375 98.5236C211.142 97.4469 212.201 95.6626 214.486 95.6626C217.094 95.6626 218.138 97.0945 219.987 97.0945C222.11 97.0945 223.852 96.0539 226.834 96.0539C228.422 96.0539 230.498 98.2739 230.498 100.216C230.498 104.828 226.466 104.168 226.466 105.289C226.466 106.069 226.711 106.677 226.711 107.762C226.711 109.149 225 109.982 224.022 109.982C221.043 109.982 220.647 109.596 220.647 109.596C220.056 108.338 219.301 107.176 218.404 106.144C218.284 106.011 216.348 107.465 213.187 107.578C210.597 107.67 208.771 108.203 208.771 109.485C208.771 110.392 209.084 113.092 209.066 113.842C209.047 114.591 208.805 115.09 208.635 115.09C208.466 115.09 208.375 114.846 207.391 114.846C206.324 114.846 206.241 116.234 206.058 116.234C204.989 116.225 201.136 115.301 201.136 112.041Z" fill="#AF7052"/>
<path d="M200.797 151.426C200.466 151.426 200.137 151.494 199.83 151.626C199.799 151.582 199.76 151.546 199.715 151.521C199.67 151.496 199.62 151.481 199.569 151.479C198.716 151.479 190.635 151.16 189.782 151.318C191.188 150.039 194.149 146.725 194.149 146.725L187.471 138.234C185.966 138.822 175.074 150.519 175.074 154.79C175.074 158.744 179.792 159.329 183.207 159.329C187.435 159.329 194.018 158.197 197.553 157.109C197.897 159.152 199.219 160.675 200.8 160.675C202.644 160.675 204.139 158.608 204.139 156.058C204.139 153.507 202.641 151.426 200.797 151.426Z" fill="#D1987D"/>
<path d="M203.327 130.791C207.5 135.714 196.044 149.314 193.973 149.314C191.902 149.314 184.693 141.331 185.478 136.372C186.263 131.413 200.888 127.922 203.327 130.791Z" fill="#E86B6B"/>
<path d="M229.392 184.859L225.991 277.037H218.769L207.639 190.16" fill="#68A56E"/>
<path d="M225.676 279.184V285.203H209.089V283.225L218.516 279.184H225.676Z" fill="black"/>
<path d="M240.141 263.37L244.036 265.87L239.758 282.92L237.961 282.409L236.391 268.82L240.141 263.37Z" fill="black"/>
</svg>
